<?xml version="1.0" encoding="UTF-8" standalone="no"?>
<!-- Created with Inkscape (http://www.inkscape.org/) -->

<svg
   width="76.11647mm"
   height="76.116478mm"
   viewBox="0 0 76.11647 76.116478"
   version="1.1"
   id="svg1"
   xmlns="http://www.w3.org/2000/svg"
   xmlns:svg="http://www.w3.org/2000/svg">
  <defs
     id="defs1" />
  <g
     id="layer1"
     transform="translate(-15.459758,-12.255256)">
    <rect
       style="display:none;fill:#0000ff;fill-rule:evenodd;stroke-width:0.456425"
       id="rect15"
       width="76.11647"
       height="76.11647"
       x="15.459758"
       y="12.255257" />
    <rect
       style="display:none;fill:#4080cf;fill-opacity:1;fill-rule:evenodd;stroke-width:0.332838"
       id="rect13"
       width="390"
       height="111.14268"
       x="0"
       y="0"
       ry="0" />
    <g
       id="g13">
      <path
         d="m 67.817683,41.240954 a 38.759036,14.996348 0.56199948 0 1 -10.05374,0.951141 18.178606,18.178606 0 0 1 4.65117,12.135731 18.178606,18.178606 0 0 1 -18.17872,18.17872 18.178606,18.178606 0 0 1 -18.17836,-18.17872 18.178606,18.178606 0 0 1 18.17836,-18.178717 18.178606,18.178606 0 0 1 0.38483,0.01253 34.101951,13.429953 0 0 1 2.92717,-3.775211 34.101951,13.429953 0 0 1 5.9696,-3.378216 27.02755,27.02755 0 0 0 -9.2816,-1.7079 27.02755,27.02755 0 0 0 -27.02751,27.027516 27.02755,27.02755 0 0 0 27.02751,27.027519 27.02755,27.02755 0 0 0 27.02752,-27.027519 27.02755,27.02755 0 0 0 -3.44623,-13.086871 z"
         style="fill:#4080cf;fill-opacity:1;stroke-width:0.484908;stroke-linecap:round;stroke-miterlimit:22;paint-order:markers fill stroke"
         id="path6" />
      <path
         id="path3"
         style="fill:#4080cf;fill-opacity:1;stroke-width:0.484908;stroke-linecap:round;stroke-miterlimit:22;paint-order:markers fill stroke"
         d="m 79.048023,59.963618 a 19.117358,19.654035 0 0 1 -18.50306,-14.872808 17.206297,17.206297 0 0 1 11.49246,-4.427444 17.206297,17.206297 0 0 1 17.14166,16.306862 19.117358,19.654035 0 0 1 -10.13106,2.99339 z" />
      <path
         d="m 67.817683,41.240954 a 27.02755,27.02755 0 0 0 -14.29969,-12.232743 34.101951,13.429953 0 0 0 -5.9696,3.378216 34.101951,13.429953 0 0 0 -2.92717,3.775211 18.178606,18.178606 0 0 1 13.14272,6.030457 38.759036,14.996348 0.56199948 0 0 10.05374,-0.951141 z"
         style="fill:#4080cf;fill-opacity:1;stroke-width:0.60311;stroke-linecap:round;stroke-miterlimit:22;paint-order:markers fill stroke"
         id="path7" />
      <path
         d="m 77.606523,24.782309 a 34.101951,13.429953 0 0 0 -24.08853,4.225902 27.02755,27.02755 0 0 1 14.29969,12.232743 38.759036,14.996348 0.56199948 0 0 20.23422,-7.291605 38.759036,14.996348 0.56199948 0 0 3.31091,-8.141798 34.101951,13.429953 0 0 0 -13.75629,-1.025242 z"
         style="fill:#4080cf;fill-opacity:1;stroke-width:0.60311;stroke-linecap:round;stroke-miterlimit:22;paint-order:markers fill stroke"
         id="path5" />
      <circle
         style="fill:#4080cf;fill-opacity:1;stroke-width:0.750083;stroke-linecap:round;stroke-miterlimit:22;paint-order:markers fill stroke"
         id="path9"
         cx="48.496063"
         cy="58.587479"
         r="12.048913" />
      <rect
         style="fill:#4080cf;fill-opacity:1;fill-rule:evenodd;stroke-width:0.0752715"
         id="rect11"
         width="6.1866236"
         height="17.218256"
         x="22.888887"
         y="65.161011"
         ry="3.2377892" />
      <rect
         style="fill:#4080cf;fill-opacity:1;fill-rule:evenodd;stroke-width:0.0519777"
         id="rect12"
         width="3.4829147"
         height="14.583896"
         x="31.064394"
         y="70.636406"
         ry="2.7424135" />
      <text
         xml:space="preserve"
         style="font-weight:500;font-size:34.4259px;line-height:37.5325px;font-family:Montserrat;-inkscape-font-specification:'Montserrat Medium';text-align:end;letter-spacing:0px;word-spacing:-0.00717204px;writing-mode:lr-tb;direction:ltr;text-anchor:end;fill:#ffffff;fill-opacity:1;stroke-width:0.474373;stroke-linecap:round;stroke-miterlimit:22;paint-order:markers fill stroke"
         x="365.34021"
         y="67.430641"
         id="text13"><tspan
           id="tspan13"
           style="font-style:normal;font-variant:normal;font-weight:normal;font-stretch:normal;font-size:34.4259px;line-height:37.5325px;font-family:'Swis721 BlkEx BT';-inkscape-font-specification:'Swis721 BlkEx BT';stroke-width:0.474373"
           x="365.34021"
           y="67.430641">ONLYCHAT</tspan></text>
    </g>
  </g>
</svg>
